Coordinates
version=1
nRows=17
nColumns=40
inDegrees=yes

Units are S.I. units (second, meters, Newtons, ...)
If the header above contains a line with 'inDegrees', this indicates whether rotational values are in degrees (yes) or radians (no).

endheader
time	pelvis_tilt	pelvis_list	pelvis_rotation	pelvis_tx	pelvis_ty	pelvis_tz	hip_flexion_r	hip_adduction_r	hip_rotation_r	knee_angle_r	knee_angle_r_beta	ankle_angle_r	subtalar_angle_r	mtp_angle_r	hip_flexion_l	hip_adduction_l	hip_rotation_l	knee_angle_l	knee_angle_l_beta	ankle_angle_l	subtalar_angle_l	mtp_angle_l	lumbar_extension	lumbar_bending	lumbar_rotation	arm_flex_r	arm_add_r	arm_rot_r	elbow_flex_r	pro_sup_r	wrist_flex_r	wrist_dev_r	arm_flex_l	arm_add_l	arm_rot_l	elbow_flex_l	pro_sup_l	wrist_flex_l	wrist_dev_l
      0.31000000	      0.82091220	     -1.61542031	     -1.57908161	     -0.15992878	      0.93616417	      0.24012195	      3.69819883	      3.90463728	     -9.09519332	     10.87243928	      0.18975986	     -4.86055137	     -9.00779934	      0.00000000	     11.67370134	    -11.78649201	    -13.00234734	     68.00332493	      1.18688192	    -12.41951032	    -14.94695452	      0.00000000	      8.56168764	      3.84105912	      4.91808259	     32.41182947	    -13.70022764	     32.41182947	     79.45613418	     44.24186608	      0.00000000	      0.00000000	     32.41182947	    -13.70022764	     32.41182947	     79.45613418	     44.24186608	      0.00000000	      0.00000000
      0.31500000	      0.98861514	     -1.26584245	     -1.86068894	     -0.15351489	      0.93719277	      0.24056101	      2.97716303	      3.48622036	     -9.39168184	     10.70454742	      0.18682960	     -4.43268743	     -8.08129152	      0.00000000	     12.15929108	    -11.45492594	    -13.48212565	     67.54944331	      1.17896019	    -11.69011708	    -14.58615306	      0.00000000	      8.37749997	      3.46108133	      5.12798761	     32.43867190	    -13.70476691	     32.43867190	     79.42558454	     44.25616790	      0.00000000	      0.00000000	     32.43867190	    -13.70476691	     32.43867190	     79.42558454	     44.25616790	      0.00000000	      0.00000000
      0.32000000	      0.95003108	     -1.01859663	     -2.10309306	     -0.14715997	      0.93787763	      0.24091919	      2.39062801	      3.22221409	     -9.45910920	     10.32100505	      0.18013552	     -4.20096111	     -7.43756454	      0.00000000	     12.90894418	    -11.20985835	    -13.81936989	     67.10031458	      1.17112142	    -10.99828402	    -14.29235954	      0.00000000	      8.43583332	      3.16120910	      5.28047608	     32.44801935	    -13.70634617	     32.44801935	     79.41498066	     44.26109207	      0.00000000	      0.00000000	     32.44801935	    -13.70634617	     32.44801935	     79.41498066	     44.26109207	      0.00000000	      0.00000000
      0.32500000	      1.09851330	     -0.70021550	     -2.38183886	     -0.14072684	      0.93876802	      0.24134515	      1.64361393	      2.84569984	     -9.67620739	     10.03522573	      0.17514773	     -3.81362602	     -6.54462322	      0.00000000	     13.35353271	    -10.92180199	    -14.31359449	     66.46143541	      1.15997087	    -10.28741301	    -13.75004877	      0.00000000	      8.30150470	      2.77126471	      5.44274578	     32.46393605	    -13.70903367	     32.46393605	     79.39696482	     44.26940961	      0.00000000	      0.00000000	     32.46393605	    -13.70903367	     32.46393605	     79.39696482	     44.26940961	      0.00000000	      0.00000000
      0.33000000	      1.06906580	     -0.57395160	     -2.56879410	     -0.13433802	      0.93926827	      0.24152981	      1.11072636	      2.69622359	     -9.92210384	      9.79163966	      0.17089635	     -3.63407481	     -6.23221015	      0.00000000	     14.06853515	    -10.84698061	    -14.72535258	     65.88761383	      1.14995580	     -9.79216155	    -13.62923211	      0.00000000	      8.37754290	      2.62892262	      5.50987725	     32.46803133	    -13.70972473	     32.46803133	     79.39233883	     44.27153544	      0.00000000	      0.00000000	     32.46803133	    -13.70972473	     32.46803133	     79.39233883	     44.27153544	      0.00000000	      0.00000000
      0.33500000	      1.37731974	     -0.05686007	     -2.93426881	     -0.12797272	      0.94032586	      0.24205185	      0.26945739	      2.03612877	    -10.17797957	      9.63922196	      0.16823616	     -3.03382919	     -4.75623463	      0.00000000	     14.19587328	    -10.29158496	    -15.32872309	     64.91063052	      1.13290422	     -9.13937017	    -12.93725483	      0.00000000	      8.02966911	      2.00076757	      5.75934365	     32.49734514	    -13.71466773	     32.49734514	     79.35931741	     44.28659470	      0.00000000	      0.00000000	     32.49734514	    -13.71466773	     32.49734514	     79.35931741	     44.28659470	      0.00000000	      0.00000000
      0.34000000	      1.36415166	      0.18377869	     -3.14162802	     -0.12161934	      0.94076539	      0.24227801	     -0.30318259	      1.74456467	    -10.34010983	      9.32062415	      0.16267558	     -2.76837316	     -4.04884102	      0.00000000	     14.81135947	    -10.04663302	    -15.71408962	     64.11313267	      1.11898526	     -8.57124039	    -12.50529158	      0.00000000	      8.06684330	      1.70687103	      5.87858877	     32.50951904	    -13.71671841	     32.50951904	     79.34565399	     44.29276858	      0.00000000	      0.00000000	     32.50951904	    -13.71671841	     32.50951904	     79.34565399	     44.29276858	      0.00000000	      0.00000000
      0.34500000	      1.33512021	      0.19791956	     -3.28310170	     -0.11541746	      0.94101772	      0.24227402	     -0.78213412	      1.69793467	    -10.56580739	      9.18322798	      0.16027756	     -2.60041420	     -3.85557033	      0.00000000	     15.49109415	    -10.06251589	    -16.06074902	     63.35408238	      1.10573733	     -8.23919756	    -12.35881311	      0.00000000	      8.10212188	      1.69744178	      5.86399294	     32.51249988	    -13.71722025	     32.51249988	     79.34231436	     44.29427194	      0.00000000	      0.00000000	     32.51249988	    -13.71722025	     32.51249988	     79.34231436	     44.29427194	      0.00000000	      0.00000000
      0.35000000	      1.71119430	      0.80011106	     -3.68485572	     -0.10890990	      0.94201838	      0.24293951	     -1.68781206	      0.92625483	    -10.84855277	      9.02167065	      0.15745786	     -1.97641223	     -2.31167105	      0.00000000	     15.38141112	     -9.42222840	    -16.80501741	     62.00464263	      1.08218517	     -7.67580288	    -11.54788576	      0.00000000	      7.73937152	      0.91037288	      6.12983393	     32.54163928	    -13.72212302	     32.54163928	     79.30974730	     44.30882824	      0.00000000	      0.00000000	     32.54163928	    -13.72212302	     32.54163928	     79.30974730	     44.30882824	      0.00000000	      0.00000000
      0.35500000	      1.73702529	      1.05240981	     -3.87468630	     -0.10253205	      0.94229279	      0.24307628	     -2.25326386	      0.59129677	    -11.07373200	      8.79774583	      0.15354963	     -1.64684031	     -1.57385490	      0.00000000	     15.85081385	     -9.13290366	    -17.21781515	     60.93151828	      1.06345561	     -7.22857573	    -11.05778258	      0.00000000	      7.74229268	      0.62609287	      6.22018551	     32.55950070	    -13.72512477	     32.55950070	     79.28986688	     44.31762161	      0.00000000	      0.00000000	     32.55950070	    -13.72512477	     32.55950070	     79.28986688	     44.31762161	      0.00000000	      0.00000000
      0.36000000	      1.88558050	      1.32495396	     -4.11825976	     -0.09620333	      0.94270002	      0.24339635	     -2.90032699	      0.21261507	    -11.31941558	      8.68919855	      0.15165512	     -1.25740639	     -0.76800780	      0.00000000	     16.11165657	     -8.83752391	    -17.71781086	     59.70021004	      1.04196523	     -6.88576444	    -10.58960754	      0.00000000	      7.62155617	      0.24449921	      6.32339980	     32.58316140	    -13.72909687	     32.58316140	     79.26363291	     44.32911130	      0.00000000	      0.00000000	     32.58316140	    -13.72909687	     32.58316140	     79.26363291	     44.32911130	      0.00000000	      0.00000000
      0.36500000	      1.89661655	      1.51977569	     -4.32711214	     -0.08985479	      0.94283284	      0.24364728	     -3.44619674	     -0.04942812	    -11.48934905	      8.45491602	      0.14756612	     -0.96766760	     -0.10781357	      0.00000000	     16.52498413	     -8.60051798	    -18.09989339	     58.46029089	      1.02032456	     -6.49604426	    -10.06209696	      0.00000000	      7.64795588	     -0.05586699	      6.41566422	     32.59906974	    -13.73176485	     32.59906974	     79.24605698	     44.33674000	      0.00000000	      0.00000000	     32.59906974	    -13.73176485	     32.59906974	     79.24605698	     44.33674000	      0.00000000	      0.00000000
      0.37000000	      2.04189382	      1.76319166	     -4.57462497	     -0.08353799	      0.94307646	      0.24390048	     -4.08211884	     -0.39981706	    -11.66977187	      8.34520616	      0.14565132	     -0.60292413	      0.59404967	      0.00000000	     16.72478295	     -8.31985873	    -18.62356481	     57.08127272	      0.99625615	     -6.20346997	     -9.57097254	      0.00000000	      7.52064300	     -0.36906677	      6.48862801	     32.61948809	    -13.73518631	     32.61948809	     79.22356678	     44.34642581	      0.00000000	      0.00000000	     32.61948809	    -13.73518631	     32.61948809	     79.22356678	     44.34642581	      0.00000000	      0.00000000
      0.37500000	      2.09028149	      1.95768265	     -4.79079853	     -0.07717995	      0.94311673	      0.24413463	     -4.63985224	     -0.67804937	    -11.81194068	      8.18616159	      0.14287547	     -0.28372032	      1.23155419	      0.00000000	     17.02410476	     -8.06927199	    -19.04394391	     55.67690021	      0.97174523	     -5.90971166	     -9.06724240	      0.00000000	      7.50360107	     -0.64218424	      6.57476037	     32.63851589	    -13.73837135	     32.63851589	     79.20268819	     44.35533030	      0.00000000	      0.00000000	     32.63851589	    -13.73837135	     32.63851589	     79.20268819	     44.35533030	      0.00000000	      0.00000000
      0.38000000	      1.97308010	      1.83272986	     -4.91666635	     -0.07100164	      0.94275791	      0.24415050	     -5.00835664	     -0.57339235	    -11.92171376	      8.07678852	      0.14096655	     -0.08741841	      1.44697990	      0.00000000	     17.60701040	     -8.17509775	    -19.26715430	     54.45263904	      0.95037784	     -5.67431025	     -8.79651588	      0.00000000	      7.62912640	     -0.54402420	      6.50548075	     32.64262325	    -13.73905841	     32.64262325	     79.19819133	     44.35723840	      0.00000000	      0.00000000	     32.64262325	    -13.73905841	     32.64262325	     79.19819133	     44.35723840	      0.00000000	      0.00000000
      0.38500000	      2.18336942	      2.24333598	     -5.24161931	     -0.06446043	      0.94294816	      0.24470258	     -5.77826768	     -1.10785506	    -11.98247193	      7.79877864	      0.13611436	      0.28328587	      2.29986979	      0.00000000	     17.53167443	     -7.69189534	    -19.90627000	     52.69475796	      0.91969702	     -5.31517179	     -7.97292503	      0.00000000	      7.47198868	     -1.12014627	      6.71631152	     32.66048374	    -13.74204484	     32.66048374	     79.17866865	     44.36548359	      0.00000000	      0.00000000	     32.66048374	    -13.74204484	     32.66048374	     79.17866865	     44.36548359	      0.00000000	      0.00000000
      0.39000000	      2.25316271	      2.40080857	     -5.51331429	     -0.05816757	      0.94281519	      0.24508340	     -6.31777879	     -1.35750990	    -12.04887946	      7.70518523	      0.13448085	      0.63829514	      2.87176314	      0.00000000	     17.68175461	     -7.46430435	    -20.35830590	     51.02888448	      0.89062205	     -5.14179916	     -7.52467278	      0.00000000	      7.42159914	     -1.37491854	      6.84929047	     32.67966307	    -13.74524875	     32.67966307	     79.15777533	     44.37423142	      0.00000000	      0.00000000	     32.67966307	    -13.74524875	     32.67966307	     79.15777533	     44.37423142	      0.00000000	      0.00000000
